<?xml version="1.0" encoding="UTF-8"?>
<svg width="154px" height="40px" viewBox="0 0 154 40" version="1.1" xmlns="http://www.w3.org/2000/svg" xmlns:xlink="http://www.w3.org/1999/xlink">
    <!-- Generator: Sketch 43.2 (39069) - http://www.bohemiancoding.com/sketch -->
    <title>Logo_H_RGB</title>
    <desc>Created with Sketch.</desc>
    <defs></defs>
    <g id="Page-1" stroke="none" stroke-width="1" fill="none" fill-rule="evenodd">
        <g id="Logo_H_RGB">
            <g id="text" transform="translate(49.000000, 7.000000)" fill="#545759">
                <path d="M95.1828,25.5575 C90.7928,25.5575 87.4828,23.8665 85.7198,21.7075 L88.4178,18.2895 C90.0368,20.0165 92.6638,21.0235 95.0028,21.0235 C97.9168,21.0235 99.5368,19.7645 99.5368,17.9655 C99.5368,16.0585 98.0618,15.1945 94.7148,15.1945 C93.7068,15.1945 92.0878,15.2305 91.7288,15.2665 L91.7288,10.6615 C92.1608,10.6975 93.8158,10.6975 94.7148,10.6975 C97.3778,10.6975 99.1768,9.9055 99.1768,8.1425 C99.1768,6.2355 97.1978,5.3005 94.7148,5.3005 C92.3758,5.3005 90.2888,6.1635 88.5988,7.7825 L86.0438,4.5805 C87.9868,2.3855 91.0088,0.7665 95.2188,0.7665 C100.8318,0.7665 104.2868,3.2855 104.2868,7.2795 C104.2868,10.3015 101.6958,12.2805 99.0328,12.7475 C101.4798,12.9995 104.6458,14.9075 104.6458,18.5055 C104.6458,22.6425 100.9398,25.5575 95.1828,25.5575 Z" id="3"></path>
                <polygon id="1" points="82.3108 25.1259 77.1798 25.1259 77.1798 7.2289 71.0548 9.1279 71.0548 4.9569 81.7598 1.1219 82.3108 1.1219"></polygon>
                <path d="M55.0813,14.7631 C55.2613,13.0361 56.4843,11.0571 59.3273,11.0571 C62.3493,11.0571 63.5003,13.1081 63.6443,14.7631 L55.0813,14.7631 Z M68.0343,16.8501 C68.0343,11.2011 64.5443,7.3151 59.3273,7.3151 C54.0733,7.3151 50.3313,11.3811 50.3313,16.4181 C50.3313,21.9951 54.3253,25.5571 59.6143,25.5571 C62.3133,25.5571 65.0483,24.7301 66.7743,23.1471 L64.7243,20.1241 C63.6083,21.2031 61.5943,21.8151 60.1183,21.8151 C57.1683,21.8151 55.4403,20.0521 55.1173,17.9301 L68.0343,17.9301 L68.0343,16.8501 Z" id="e"></path>
                <path d="M49.674,25.1259 L42.586,15.6269 L49.458,7.7469 L43.846,7.7469 L37.261,15.4829 L37.261,2.1259 C37.261,1.5739 36.814,1.1259 36.261,1.1259 L32.692,1.1259 L32.692,25.1259 L37.261,25.1259 L37.261,20.6639 L39.348,18.4329 L43.953,25.1259 L49.674,25.1259 Z" id="k"></path>
                <path d="M25.6653,5.8759 C24.1893,5.8759 22.9663,4.6519 22.9663,3.1409 C22.9663,1.6299 24.1893,0.4429 25.6653,0.4429 C27.1763,0.4429 28.3993,1.6299 28.3993,3.1409 C28.3993,4.6519 27.1763,5.8759 25.6653,5.8759 Z M23.398,25.126 L23.398,7.747 L27.968,7.747 L27.968,25.126 L23.398,25.126 Z" id="i"></path>
                <path d="M10.506,12.0680001 L5.11,12.0680001 L5.11,5.62800011 L10.506,5.62800011 C12.522,5.62800011 14.069,6.85100011 14.069,8.86600011 C14.069,10.8450001 12.522,12.0680001 10.506,12.0680001 M11.226,1.13000011 L1,1.13000011 C0.447,1.13000011 0,1.57800011 0,2.13000011 L0,25.1300001 L5.11,25.1300001 L5.11,16.5660001 L11.226,16.5660001 C16.407,16.5660001 19.285,13.0400001 19.285,8.86600011 C19.285,4.65600011 16.443,1.13000011 11.226,1.13000011" id="P"></path>
            </g>
            <g id="Group">
                <path d="M20.0440709,18.8466487 L11.078076,13.7622309 L35.1468909,0.111109124 C35.6039968,-0.14791216 35.9786404,0.0621050973 35.9796584,0.576147338 L36.0040917,8.8558277 C36.0061278,9.37087003 35.6335203,10.0049221 35.1753964,10.2639434 L20.0440709,18.8466487 Z M0.0041,22.26983 L7.00627023,26.2411563 L0.857228621,29.7284429 C0.400122713,29.9884642 0.0254791182,29.778447 0.0244610649,29.2624046 L0.0041,22.26983 Z" id="Combined-Shape" fill="#81BC00"></path>
                <path d="M0.857118371,10.2738095 L35.172386,29.7374774 C35.6294479,29.9974996 36.0020194,30.6305539 35.9999835,31.145598 L35.9765706,39.4243074 C35.9755526,39.9403517 35.6009451,40.1513697 35.1438833,39.8913475 L0.828615627,20.4266795 C0.370535816,20.1676573 -0.0020357638,19.533603 1.46475905e-07,19.0185589 L0.0244310697,10.7388494 C0.0254490249,10.2248053 0.400056515,10.0147873 0.857118371,10.2738095" id="Fill-14" fill="#00833D"></path>
            </g>
        </g>
    </g>
</svg>